<svg width="88" height="88" viewBox="0 0 88 88" fill="none" xmlns="http://www.w3.org/2000/svg">
<path fill-rule="evenodd" clip-rule="evenodd" d="M44.5 39.135V0H42.5V37.4009L23.732 4.89388L22 5.89388L42.0005 40.5357L6.89567 20.268L5.89567 22L40.5367 42H0V44H40.0008L4.89567 64.268L5.89567 66L40.5364 46.0002L20.268 81.1061L22 82.1061L42.5 46.5991V88H44.5V44.865L66 82.1041L67.732 81.1041L47.4646 45.9998L82.1059 66L83.1059 64.268L48.0008 44H88V42H47.4649L82.1059 22L81.1059 20.268L46.0005 40.5361L66 5.89588L64.268 4.89588L44.5 39.135Z" fill="black"/>
</svg>
